<svg xmlns="http://www.w3.org/2000/svg" width="1024" height="1024" viewBox="0 0 64 64">
  <rect width="64" height="64" rx="14" fill="#0F6E56"/>
  <path transform="translate(-6.98 -11.02) scale(0.1698)" fill="#FFFFFF" d="M134.959747,162.206421 C124.568611,162.223053 114.908157,160.783096 105.628952,157.182877 C102.186188,155.847137 98.816292,154.302643 96.568283,151.223511 C94.901726,148.940796 94.131348,146.351913 96.179169,143.866425 C98.000061,141.656357 100.423828,141.359619 102.975433,142.461700 C105.573227,143.583755 108.116257,144.832611 110.683357,146.025757 C119.518082,150.131927 128.506180,150.893219 137.878342,147.806030 C141.632309,146.569473 143.537018,144.936005 143.840424,140.572525 C144.634140,129.157852 155.420532,123.409164 164.034836,129.392502 C166.471878,131.085236 168.096115,133.426041 168.939484,136.151886 C169.874176,139.172836 171.683029,139.896103 174.601593,139.519531 C184.023575,138.303772 193.495117,137.811066 202.998505,137.822403 C251.823502,137.880661 300.648560,137.901245 349.473572,137.959900 C358.004913,137.970154 361.455170,140.744003 363.281647,149.127106 C365.094879,157.449265 364.747009,165.627197 361.489075,173.630554 C359.846527,177.665634 357.312286,179.446213 352.753052,179.431015 C312.426941,179.296646 272.100098,179.308670 231.773758,179.400177 C223.922638,179.417984 218.875183,175.724182 215.932602,168.753296 C215.029053,166.612854 214.317719,164.372574 213.726440,162.123322 C212.792389,158.570023 210.390274,156.686096 206.944641,156.466843 C196.298981,155.789459 185.693359,155.970993 175.170670,158.776749 C174.437546,162.715988 175.932327,166.181534 176.663223,169.676529 C188.301666,225.330780 207.017746,278.608643 230.656006,330.237549 C234.455536,338.536194 238.796707,346.704651 239.572281,356.060760 C240.322403,365.110077 239.112152,373.437927 230.535294,378.757874 C222.994568,383.435120 213.151489,382.633392 205.209961,376.887482 C198.508514,372.038788 194.112518,365.434998 190.885941,358.002808 C172.699371,316.111389 160.442017,272.482239 152.619537,227.539352 C149.166382,207.699890 146.502609,187.765900 144.604355,167.723740 C144.084579,162.235840 143.875778,162.109100 134.959747,162.206421 M342.352234,146.901901 C344.732422,146.728256 347.199585,147.273346 349.859131,146.280563 C348.147888,144.608124 346.417236,145.232635 344.896637,145.230057 C306.763367,145.165421 268.630005,145.139725 230.496658,145.144928 C222.400894,145.146042 220.636230,147.942581 223.647690,155.724304 C224.910965,146.975983 224.910965,146.969162 233.985931,146.963730 C269.787964,146.942291 305.590027,146.925507 342.352234,146.901901 M214.438934,356.272827 C213.704636,358.882721 213.801392,361.209229 216.558624,362.671356 C218.402435,363.649109 220.090729,363.479889 221.519012,361.940552 C223.234314,360.091888 224.219284,357.943329 222.409378,355.719635 C220.029404,352.795532 217.366608,352.990723 214.438934,356.272827 M161.269867,147.529114 C159.725677,145.685318 157.920258,144.690857 155.651840,146.205887 C153.850250,147.409103 152.780197,149.141632 153.727524,151.314392 C154.555176,153.212677 156.041595,154.892929 158.320679,154.315414 C161.396133,153.536102 162.553757,151.329132 161.269867,147.529114 z"/>
</svg>
